<svg width="21" height="20" viewBox="0 0 21 20" fill="none" xmlns="http://www.w3.org/2000/svg">
<path d="M19.0312 1.71875H17.2266V1.5625C17.2266 1.1481 17.0537 0.750671 16.746 0.457646C16.4384 0.16462 16.0211 0 15.5859 0C15.1508 0 14.7335 0.16462 14.4258 0.457646C14.1182 0.750671 13.9453 1.1481 13.9453 1.5625V1.71875H7.05469V1.5625C7.05469 1.1481 6.88184 0.750671 6.57416 0.457646C6.26648 0.16462 5.84918 3.29272e-08 5.41406 3.29272e-08C4.97894 3.29272e-08 4.56164 0.16462 4.25397 0.457646C3.94629 0.750671 3.77344 1.1481 3.77344 1.5625V1.71875H1.96875C1.44661 1.71875 0.945846 1.91629 0.576634 2.26792C0.207421 2.61956 0 3.09647 0 3.59375L0 16.4062C0 16.9035 0.207421 17.3804 0.576634 17.7321C0.945846 18.0837 1.44661 18.2812 1.96875 18.2812H19.0312C19.5534 18.2812 20.0542 18.0837 20.4234 17.7321C20.7926 17.3804 21 16.9035 21 16.4062V3.59375C21 3.09647 20.7926 2.61956 20.4234 2.26792C20.0542 1.91629 19.5534 1.71875 19.0312 1.71875ZM15.2578 1.5625C15.2578 1.47962 15.2924 1.40013 15.3539 1.34153C15.4155 1.28292 15.4989 1.25 15.5859 1.25C15.673 1.25 15.7564 1.28292 15.818 1.34153C15.8795 1.40013 15.9141 1.47962 15.9141 1.5625V3.4375C15.9141 3.52038 15.8795 3.59987 15.818 3.65847C15.7564 3.71708 15.673 3.75 15.5859 3.75C15.4989 3.75 15.4155 3.71708 15.3539 3.65847C15.2924 3.59987 15.2578 3.52038 15.2578 3.4375V1.5625ZM5.08594 1.5625C5.08594 1.47962 5.12051 1.40013 5.18204 1.34153C5.24358 1.28292 5.32704 1.25 5.41406 1.25C5.50109 1.25 5.58455 1.28292 5.64608 1.34153C5.70762 1.40013 5.74219 1.47962 5.74219 1.5625V3.4375C5.74219 3.52038 5.70762 3.59987 5.64608 3.65847C5.58455 3.71708 5.50109 3.75 5.41406 3.75C5.32704 3.75 5.24358 3.71708 5.18204 3.65847C5.12051 3.59987 5.08594 3.52038 5.08594 3.4375V1.5625ZM19.6875 16.4062C19.6875 16.572 19.6184 16.731 19.4953 16.8482C19.3722 16.9654 19.2053 17.0312 19.0312 17.0312H1.96875C1.7947 17.0312 1.62778 16.9654 1.50471 16.8482C1.38164 16.731 1.3125 16.572 1.3125 16.4062V6.875H19.6875V16.4062ZM19.6875 5.625H1.3125V3.59375C1.3125 3.42799 1.38164 3.26902 1.50471 3.15181C1.62778 3.0346 1.7947 2.96875 1.96875 2.96875H3.77344V3.4375C3.77344 3.8519 3.94629 4.24933 4.25397 4.54235C4.56164 4.83538 4.97894 5 5.41406 5C5.84918 5 6.26648 4.83538 6.57416 4.54235C6.88184 4.24933 7.05469 3.8519 7.05469 3.4375V2.96875H13.9453V3.4375C13.9453 3.8519 14.1182 4.24933 14.4258 4.54235C14.7335 4.83538 15.1508 5 15.5859 5C16.0211 5 16.4384 4.83538 16.746 4.54235C17.0537 4.24933 17.2266 3.8519 17.2266 3.4375V2.96875H19.0312C19.2053 2.96875 19.3722 3.0346 19.4953 3.15181C19.6184 3.26902 19.6875 3.42799 19.6875 3.59375V5.625Z" fill="white"/>
</svg>
