<svg width="62" height="57" viewBox="0 0 62 57" fill="none" xmlns="http://www.w3.org/2000/svg">
<path d="M0 28.5C0 12.7599 12.7599 0 28.5 0H33.5C49.2401 0 62 12.7599 62 28.5C62 44.2401 49.2401 57 33.5 57H28.5C12.7599 57 0 44.2401 0 28.5Z" fill="#DE4CB1"/>
<path fill-rule="evenodd" clip-rule="evenodd" d="M31 38.5C36.5228 38.5 41 34.0228 41 28.5C41 22.9771 36.5228 18.5 31 18.5C25.4771 18.5 21 22.9771 21 28.5C21 34.0228 25.4771 38.5 31 38.5ZM31 35.1667C34.6818 35.1667 37.6667 32.1818 37.6667 28.5C37.6667 24.8181 34.6818 21.8333 31 21.8333C27.3181 21.8333 24.3333 24.8181 24.3333 28.5C24.3333 32.1818 27.3181 35.1667 31 35.1667Z" fill="white"/>
<path d="M41 16.8334C40.0795 16.8334 39.3333 17.5796 39.3333 18.5C39.3333 19.4205 40.0795 20.1667 41 20.1667C41.9205 20.1667 42.6667 19.4205 42.6667 18.5C42.6667 17.5796 41.9205 16.8334 41 16.8334Z" fill="white"/>
<path fill-rule="evenodd" clip-rule="evenodd" d="M13.7566 15.6267C12.6667 17.7658 12.6667 20.5661 12.6667 26.1666V30.8333C12.6667 36.4338 12.6667 39.2341 13.7566 41.3731C14.7153 43.2548 16.2451 44.7846 18.1268 45.7433C20.2659 46.8333 23.0661 46.8333 28.6667 46.8333H33.3333C38.9338 46.8333 41.7342 46.8333 43.8732 45.7433C45.7548 44.7846 47.2847 43.2548 48.2433 41.3731C49.3333 39.2341 49.3333 36.4338 49.3333 30.8333V26.1666C49.3333 20.5661 49.3333 17.7658 48.2433 15.6267C47.2847 13.7451 45.7548 12.2153 43.8732 11.2566C41.7342 10.1666 38.9338 10.1666 33.3333 10.1666H28.6667C23.0661 10.1666 20.2659 10.1666 18.1268 11.2566C16.2451 12.2153 14.7153 13.7451 13.7566 15.6267ZM33.3333 13.5H28.6667C25.8114 13.5 23.8704 13.5026 22.3701 13.6251C20.9087 13.7445 20.1614 13.9609 19.6401 14.2266C18.3856 14.8657 17.3658 15.8856 16.7266 17.14C16.461 17.6614 16.2446 18.4087 16.1252 19.8701C16.0026 21.3704 16 23.3114 16 26.1666V30.8333C16 33.6886 16.0026 35.6295 16.1252 37.1298C16.2446 38.5913 16.461 39.3386 16.7266 39.86C17.3658 41.1143 18.3856 42.1341 19.6401 42.7733C20.1614 43.039 20.9087 43.2555 22.3701 43.3748C23.8704 43.4973 25.8114 43.5 28.6667 43.5H33.3333C36.1887 43.5 38.1295 43.4973 39.6298 43.3748C41.0913 43.2555 41.8387 43.039 42.36 42.7733C43.6143 42.1341 44.6341 41.1143 45.2733 39.86C45.539 39.3386 45.7555 38.5913 45.8748 37.1298C45.9973 35.6295 46 33.6886 46 30.8333V26.1666C46 23.3114 45.9973 21.3704 45.8748 19.8701C45.7555 18.4087 45.539 17.6614 45.2733 17.14C44.6341 15.8856 43.6143 14.8657 42.36 14.2266C41.8387 13.9609 41.0913 13.7445 39.6298 13.6251C38.1295 13.5026 36.1887 13.5 33.3333 13.5Z" fill="white"/>
</svg>
