<svg width="44" height="44" viewBox="0 0 44 44" fill="none" xmlns="http://www.w3.org/2000/svg">
<path fill-rule="evenodd" clip-rule="evenodd" d="M0.294556 10C0.294556 4.75329 4.54785 0.5 9.79456 0.5H33.7946C39.0413 0.5 43.2946 4.75329 43.2946 10V34C43.2946 39.2467 39.0413 43.5 33.7946 43.5H9.79456C4.54785 43.5 0.294556 39.2467 0.294556 34V10ZM9.79456 3.5C6.2047 3.5 3.29456 6.41015 3.29456 10V27L8.33761 30.362C11.5106 32.4774 15.7355 32.059 18.4321 29.3625L25.157 22.6375C27.8536 19.941 32.0785 19.5226 35.2515 21.638L40.0134 24.8125C40.1105 24.8773 40.2043 24.946 40.2946 25.0182V10C40.2946 6.41015 37.3844 3.5 33.7946 3.5H9.79456ZM14.7946 20C17.556 20 19.7946 17.7614 19.7946 15C19.7946 12.2386 17.556 10 14.7946 10C12.0331 10 9.79456 12.2386 9.79456 15C9.79456 17.7614 12.0331 20 14.7946 20Z" fill="#E9E9E9"/>
</svg>
